<svg xmlns="http://www.w3.org/2000/svg" height="40" viewBox="0 -960 960 960" width="40"><path d="M304.444-517.681q19.11 0 32.058-12.928 12.947-12.927 12.947-32.038 0-19.111-12.928-32.058t-32.038-12.947q-19.111 0-32.058 12.927-12.948 12.928-12.948 32.039 0 19.11 12.928 32.058 12.928 12.947 32.039 12.947Zm177.87 0q19.135 0 32.154-12.928 13.018-12.927 13.018-32.038 0-19.111-12.967-32.058-12.966-12.947-32.134-12.947t-32.019 12.927q-12.852 12.928-12.852 32.039 0 19.11 12.832 32.058 12.832 12.947 31.968 12.947Zm172.537 0q19.11 0 32.058-12.928 12.947-12.927 12.947-32.038 0-19.111-12.928-32.058t-32.038-12.947q-19.111 0-32.058 12.927-12.948 12.928-12.948 32.039 0 19.11 12.928 32.058 12.928 12.947 32.039 12.947ZM70.84-74.173v-730.842q0-35.219 24.874-60.204t59.938-24.985h648.696q35.22 0 60.204 24.985 24.985 24.985 24.985 60.204v490.03q0 35.064-24.985 59.938-24.984 24.874-60.204 24.874H226.84l-156 156Z"/></svg>